<svg xmlns="http://www.w3.org/2000/svg" width="180" height="180" viewBox="0 0 180 180"><defs><linearGradient id="apple-gradient" x1="0%" x2="100%" y1="0%" y2="100%"><stop offset="0%" style="stop-color:#f97316;stop-opacity:1"/><stop offset="30%" style="stop-color:#ea580c;stop-opacity:1"/><stop offset="70%" style="stop-color:#dc2626;stop-opacity:1"/><stop offset="100%" style="stop-color:#b91c1c;stop-opacity:1"/></linearGradient><filter id="apple-shadow"><feDropShadow dx="0" dy="2" flood-opacity=".3" stdDeviation="3"/></filter></defs><rect width="180" height="180" fill="url(#apple-gradient)" filter="url(#apple-shadow)" rx="40"/><g fill="#fff" opacity=".95"><path stroke="#fff" stroke-width="1" d="M40 45 L50 135 L65 135 L82.5 80 L100 135 L115 135 L132.5 80 L150 135 L165 135 L145 45 L125 45 L107.5 100 L90 45 L75 45 L57.5 100 L40 45 Z" opacity=".1"/></g><g opacity=".7"><rect width="8" height="8" x="25" y="25" fill="#fff" opacity=".6" rx="1"/><rect width="6" height="6" x="25" y="38" fill="#fff" opacity=".4" rx="1"/><rect width="4" height="4" x="25" y="48" fill="#fff" opacity=".3" rx=".5"/><circle cx="152" cy="30" r="4" fill="#fff" opacity=".6"/><circle cx="147" cy="40" r="3" fill="#fff" opacity=".4"/><circle cx="155" cy="48" r="2" fill="#fff" opacity=".3"/></g><g fill="none" stroke="#fff" stroke-width=".5" opacity=".1"><path d="M60 20 Q90 35 120 20"/><path d="M60 160 Q90 145 120 160"/></g></svg>