<svg xmlns="http://www.w3.org/2000/svg" viewBox="0 0 512 512" width="512" height="512">
  <defs>
    <linearGradient id="pwa512-gradient" x1="0%" y1="0%" x2="100%" y2="100%">
      <stop offset="0%" style="stop-color:#f97316;stop-opacity:1" />
      <stop offset="20%" style="stop-color:#ea580c;stop-opacity:1" />
      <stop offset="60%" style="stop-color:#dc2626;stop-opacity:1" />
      <stop offset="100%" style="stop-color:#b91c1c;stop-opacity:1" />
    </linearGradient>
    <filter id="pwa512-shadow">
      <feDropShadow dx="0" dy="8" stdDeviation="16" flood-opacity="0.3"/>
    </filter>
    <filter id="inner-glow">
      <feGaussianBlur stdDeviation="3" result="coloredBlur"/>
      <feMerge> 
        <feMergeNode in="coloredBlur"/>
        <feMergeNode in="SourceGraphic"/>
      </feMerge>
    </filter>
  </defs>
  
  <!-- Background for 512px PWA icon -->
  <rect width="512" height="512" rx="128" fill="url(#pwa512-gradient)" filter="url(#pwa512-shadow)"/>
  
  <!-- Detailed "W" with multiple layers -->
  <g fill="white" opacity="0.98" filter="url(#inner-glow)">
    <!-- Main W shape -->
    <path d="M128 128 L148 384 L188 384 L228 232 L268 384 L308 384 L348 232 L388 384 L428 384 L398 128 L348 128 L308 256 L268 128 L244 128 L204 256 L164 128 Z"/>
    
    <!-- Inner depth layer -->
    <path d="M136 136 L152 376 L184 376 L220 244 L256 376 L292 376 L328 244 L364 376 L396 376 L372 136 L332 136 L308 248 L284 136 L260 136 L236 248 L212 136 Z" opacity="0.4"/>
    
    <!-- Highlight layer -->
    <path d="M144 144 L156 368 L180 368 L212 256 L244 368 L268 368 L300 256 L332 368 L356 368 L340 144 L316 144 L308 240 L300 144 L276 144 L268 240 L260 144 Z" opacity="0.2"/>
  </g>
  
  <!-- Enhanced transformation visualization -->
  <g opacity="0.85">
    <!-- AI side - geometric patterns -->
    <g opacity="0.8">
      <rect x="48" y="48" width="32" height="32" fill="white" opacity="0.8" rx="6"/>
      <rect x="48" y="92" width="28" height="28" fill="white" opacity="0.6" rx="4"/>
      <rect x="48" y="132" width="24" height="24" fill="white" opacity="0.5" rx="3"/>
      <rect x="48" y="168" width="20" height="20" fill="white" opacity="0.4" rx="2"/>
      <rect x="48" y="200" width="16" height="16" fill="white" opacity="0.3" rx="2"/>
      
      <!-- Grid pattern -->
      <g stroke="white" stroke-width="2" fill="none" opacity="0.3">
        <line x1="88" y1="48" x2="88" y2="80"/>
        <line x1="48" y1="88" x2="80" y2="88"/>
        <line x1="76" y1="132" x2="76" y2="156"/>
        <line x1="48" y1="144" x2="72" y2="144"/>
      </g>
    </g>
    
    <!-- Human side - organic patterns -->
    <g opacity="0.8">
      <circle cx="448" cy="64" r="16" fill="white" opacity="0.8"/>
      <circle cx="436" cy="96" r="14" fill="white" opacity="0.6"/>
      <circle cx="452" cy="128" r="12" fill="white" opacity="0.5"/>
      <circle cx="440" cy="160" r="10" fill="white" opacity="0.4"/>
      <circle cx="456" cy="192" r="8" fill="white" opacity="0.3"/>
      
      <!-- Flowing lines -->
      <g stroke="white" stroke-width="3" fill="none" opacity="0.3" stroke-linecap="round">
        <path d="M432 80 Q448 88 464 80"/>
        <path d="M424 112 Q444 120 464 112"/>
        <path d="M428 144 Q448 152 468 144"/>
        <path d="M420 176 Q444 184 468 176"/>
      </g>
    </g>
  </g>
  
  <!-- Complex weave pattern -->
  <g opacity="0.12" stroke="white" stroke-width="2" fill="none" stroke-linecap="round">
    <!-- Horizontal weaves -->
    <path d="M100 80 Q156 120 212 80 Q268 120 324 80 Q380 120 436 80"/>
    <path d="M100 432 Q156 392 212 432 Q268 392 324 432 Q380 392 436 432"/>
    
    <!-- Vertical weaves -->
    <path d="M80 100 Q120 156 80 212 Q120 268 80 324 Q120 380 80 436"/>
    <path d="M432 100 Q392 156 432 212 Q392 268 432 324 Q392 380 432 436"/>
    
    <!-- Diagonal weaves -->
    <path d="M120 120 Q180 180 240 120 Q300 180 360 120"/>
    <path d="M120 392 Q180 332 240 392 Q300 332 360 392"/>
  </g>
  
  <!-- Subtle brand elements -->
  <g opacity="0.08">
    <!-- Text transformation arrows -->
    <path d="M180 400 L200 420 L180 440" stroke="white" stroke-width="3" fill="none" stroke-linecap="round"/>
    <path d="M312 400 L332 420 L312 440" stroke="white" stroke-width="3" fill="none" stroke-linecap="round"/>
  </g>
</svg>