<svg xmlns="http://www.w3.org/2000/svg" width="192" height="192" viewBox="0 0 192 192"><defs><linearGradient id="pwa192-gradient" x1="0%" x2="100%" y1="0%" y2="100%"><stop offset="0%" style="stop-color:#f97316;stop-opacity:1"/><stop offset="25%" style="stop-color:#ea580c;stop-opacity:1"/><stop offset="75%" style="stop-color:#dc2626;stop-opacity:1"/><stop offset="100%" style="stop-color:#b91c1c;stop-opacity:1"/></linearGradient><filter id="pwa-shadow"><feDropShadow dx="0" dy="4" flood-opacity=".25" stdDeviation="8"/></filter></defs><rect width="192" height="192" fill="url(#pwa192-gradient)" filter="url(#pwa-shadow)" rx="48"/><g fill="#fff" filter="url(#pwa-shadow)" opacity=".95"><path d="M48 48 L58 144 L74 144 L92 88 L110 144 L126 144 L144 88 L162 144 L178 144 L158 48 L138 48 L120 104 L102 48 L90 48 L72 104 L54 48 Z"/><path d="M52 52 L60 140 L72 140 L88 92 L104 140 L120 140 L136 92 L152 140 L164 140 L148 52 L132 52 L120 100 L108 52 L96 52 L84 100 L72 52 Z" opacity=".3"/></g><g opacity=".8"><rect width="12" height="12" x="20" y="20" fill="#fff" opacity=".7" rx="2"/><rect width="10" height="10" x="20" y="38" fill="#fff" opacity=".5" rx="2"/><rect width="8" height="8" x="20" y="54" fill="#fff" opacity=".4" rx="1"/><rect width="6" height="6" x="20" y="68" fill="#fff" opacity=".3" rx="1"/><circle cx="170" cy="26" r="6" fill="#fff" opacity=".7"/><circle cx="164" cy="40" r="5" fill="#fff" opacity=".5"/><circle cx="174" cy="54" r="4" fill="#fff" opacity=".4"/><circle cx="168" cy="68" r="3" fill="#fff" opacity=".3"/></g><g fill="none" stroke="#fff" stroke-width="1" opacity=".15"><path d="M70 30 Q96 45 122 30 Q148 45 174 30"/><path d="M70 162 Q96 147 122 162 Q148 147 174 162"/><path d="M30 70 Q45 96 30 122 Q45 148 30 174"/><path d="M162 70 Q147 96 162 122 Q147 148 162 174"/></g></svg>